PathFileType	4	(X/Y/Z)	C:\Users\Basilio\Documents\Thesis Gigler\squatting_fais\c3dfiles\039\SJ_pre5\markers_experimental.trc
DataRate	CameraRate	NumFrames	NumMarkers	Units	OrigDataRate	OrigDataStartFrame	OrigNumFrames
200.000000	200.000000	4	61	mm	200.000000	1018	1630
Frame#	Time	FHD			LBHD			RBHD			C7			T10			CLAV			LSHO			LUUPA			LMUPA			LDUPA			LLEP			LMEP			LRAD			LUL			LRFIN			RSHO			RUPA1			RMUPA			RDUPA			RLEP			RMEP			RRAD			RUL			RUFIN			LASI			RASI			USACR			LSACR			RSACR			LTHI1			LTHI2			LTHI3			LTHI4			LLFC			LMFC			LTIB1			LTIB2			LTIB3			LTIB4			LLMAL			LMMAL			LHEE			LMT1			LMT2			LMT5			RTHI			RTHI2			RTHI3			RTHI4			RLFC			RMFC			RTIB1			RTIB2			RTIB3			RTIB4			RLMAL			RMMAL			RHEE			RMT1			RMT2			RMT5			
		X1	Y1	Z1	X2	Y2	Z2	X3	Y3	Z3	X4	Y4	Z4	X5	Y5	Z5	X6	Y6	Z6	X7	Y7	Z7	X8	Y8	Z8	X9	Y9	Z9	X10	Y10	Z10	X11	Y11	Z11	X12	Y12	Z12	X13	Y13	Z13	X14	Y14	Z14	X15	Y15	Z15	X16	Y16	Z16	X17	Y17	Z17	X18	Y18	Z18	X19	Y19	Z19	X20	Y20	Z20	X21	Y21	Z21	X22	Y22	Z22	X23	Y23	Z23	X24	Y24	Z24	X25	Y25	Z25	X26	Y26	Z26	X27	Y27	Z27	X28	Y28	Z28	X29	Y29	Z29	X30	Y30	Z30	X31	Y31	Z31	X32	Y32	Z32	X33	Y33	Z33	X34	Y34	Z34	X35	Y35	Z35	X36	Y36	Z36	X37	Y37	Z37	X38	Y38	Z38	X39	Y39	Z39	X40	Y40	Z40	X41	Y41	Z41	X42	Y42	Z42	X43	Y43	Z43	X44	Y44	Z44	X45	Y45	Z45	X46	Y46	Z46	X47	Y47	Z47	X48	Y48	Z48	X49	Y49	Z49	X50	Y50	Z50	X51	Y51	Z51	X52	Y52	Z52	X53	Y53	Z53	X54	Y54	Z54	X55	Y55	Z55	X56	Y56	Z56	X57	Y57	Z57	X58	Y58	Z58	X59	Y59	Z59	X60	Y60	Z60	X61	Y61	Z61	

1019	5.09	-86.46739959716798	1935.944702148438	-776.7681884765627	-216.9483795166016	1853.563110351563	-904.582946777344	-199.6671752929688	1863.467895507813	-765.2088623046876	-205.3462371826172	1715.690063476563	-849.3424072265627	-190.8584442138672	1406.2890625	-861.7783203125002	-52.39553070068361	1670.4326171875	-843.6311035156252	-94.66595458984376	1729.143920898438	-1026.390747070313	-158.9712829589844	1597.414794921875	-1205.7001953125	-121.6728134155274	1563.166259765625	-1205.419799804688	-157.6927947998047	1542.9140625	-1249.902587890625	-152.7007293701172	1477.497802734375	-1280.520751953125	-234.0696868896485	1461.932373046875	-1244.931762695313	-155.4428863525391	1241.958740234375	-1102.776489257813	-108.0158233642578	1218.625	-1157.18310546875	-104.4756088256836	1237.681884765625	-1050.7890625	-91.52891540527345	1718.309692382813	-658.5698852539064	-201.2837219238282	1594.844604492188	-502.6837768554689	-167.3407287597657	1561.205932617188	-488.1607971191407	-215.1618804931641	1541.985229492188	-458.1249389648439	-209.6447143554688	1476.274780273438	-429.0263671875001	-284.8726196289063	1463.31494140625	-474.4310913085939	-163.3990478515625	1270.168579101563	-640.4081420898439	-155.5005493164063	1220.903930664063	-582.0882568359376	-103.6392822265625	1243.874389648438	-680.9806518554689	-32.07085800170899	1216.152221679688	-967.184509277344	-44.52025604248048	1203.22314453125	-743.4783935546876	-206.4183654785157	1278.19287109375	-858.8623046875002	-213.1445465087891	1247.849731445313	-886.3803710937502	-217.8465881347657	1248.516479492188	-827.0642089843752	-105.5196914672852	931.5325927734377	-1056.542114257813	-70.35496520996095	854.4924316406252	-1065.174438476563	-22.46851921081543	857.9077148437502	-1060.895263671875	-95.61177062988283	800.0413818359377	-1054.332275390625	-95.09484100341798	676.4672851562501	-1059.147338867188	-51.59815597534181	643.3538818359376	-951.3959960937502	-43.95578765869141	525.5287475585939	-1053.140014648438	-118.3996124267578	493.2125854492189	-1084.65576171875	-76.7859344482422	483.4134216308595	-1077.218627929688	-76.22472381591798	400.436981201172	-1044.867919921875	-160.4540557861328	242.1302185058594	-1076.082397460938	-127.3032836914063	228.4301452636719	-997.4224243164065	-226.7415771484376	234.5804138183594	-1020.651184082031	-39.33567810058594	95.36666107177736	-1039.022827148438	-54.77138137817384	91.82613372802736	-1079.154052734375	-116.1997985839844	91.90946197509767	-1113.788208007813	-101.5976257324219	932.297790527344	-656.4837646484376	-60.61225509643556	880.3382568359377	-644.3286132812501	-27.73604011535645	884.5765380859377	-649.0603027343751	-83.81822204589845	797.8107910156252	-651.8810424804689	-111.0391159057617	659.8654174804689	-667.5352783203126	-59.43391036987306	637.0784912109376	-773.2075195312502	-75.7940139770508	448.633514404297	-647.8637695312501	-162.8030242919922	386.6235961914064	-649.1774291992189	-119.1352691650391	376.4207763671876	-636.4483642578126	-98.51358032226565	323.8491210937501	-659.3295898437501	-174.4048767089844	239.034164428711	-638.9735717773439	-128.9788055419922	234.9429779052735	-715.6218261718751	-233.6856994628907	235.1106262207032	-704.1651611328126	-50.05772018432619	95.0399856567383	-670.7809448242189	-62.6549415588379	97.94193267822268	-626.4871826171876	-130.6560974121094	102.2819442749024	-591.7367553710939	
1020	5.095	-85.85105133056642	1924.690673828125	-777.1900024414065	-216.7293853759766	1842.028930664063	-904.4033203125002	-199.1635742187501	1851.96630859375	-765.1461791992189	-205.3302307128907	1704.348999023438	-848.835144042969	-191.7370147705078	1394.78466796875	-861.8530883789065	-52.03038024902345	1659.295166015625	-843.4964599609377	-94.51685333251955	1717.669311523438	-1026.149291992188	-159.365463256836	1586.359252929688	-1205.500610351563	-122.2901687622071	1551.373413085938	-1205.437622070313	-158.0122985839844	1531.8642578125	-1249.983764648438	-152.9013671875	1466.693359375	-1280.432250976563	-234.5439453125001	1451.031616210938	-1244.986083984375	-155.1695556640625	1231.098876953125	-1102.774536132813	-107.3317337036133	1207.610717773438	-1157.21484375	-104.2923583984375	1226.647583007813	-1050.60107421875	-91.21887969970705	1707.127075195313	-658.3896484375001	-200.8182525634766	1583.915771484375	-502.1456604003907	-166.8648223876953	1549.9873046875	-487.7576293945314	-214.7109832763672	1531.218017578125	-457.5267028808595	-209.2859649658204	1465.492919921875	-428.2656250000001	-284.5325012207032	1452.352172851563	-473.482147216797	-163.1766815185547	1259.65283203125	-640.1572265625001	-155.2846832275391	1210.514038085938	-581.9938964843751	-103.4587707519532	1233.310791015625	-680.7389526367189	-32.16059494018555	1205.13037109375	-967.074645996094	-44.68202209472657	1192.2509765625	-743.2929077148439	-206.7138214111329	1266.7197265625	-858.7046508789065	-213.0018615722657	1236.111938476563	-886.2347412109377	-218.2790832519532	1237.253295898438	-826.9815673828127	-102.6777725219727	920.317077636719	-1056.734252929688	-66.65283966064455	843.8187255859377	-1064.84521484375	-19.58241271972657	847.7628173828127	-1060.825805664063	-91.79589080810548	788.9497070312502	-1054.955444335938	-90.6497039794922	665.5932006835939	-1059.62353515625	-47.74913024902344	632.0513916015626	-952.2036743164065	-40.41073608398438	514.0948486328126	-1053.3447265625	-115.6283874511719	481.8281555175782	-1085.014892578125	-73.80382537841798	472.0775451660157	-1077.448120117188	-74.09798431396486	389.5554809570314	-1045.089965820313	-160.2679443359375	232.1632690429688	-1076.296142578125	-127.2903747558594	218.0802307128907	-997.3931274414065	-226.0885772705079	224.3955230712891	-1021.217956542969	-40.32263183593751	84.49227142333986	-1038.178588867188	-54.92387771606447	81.57155609130861	-1078.26708984375	-116.5501022338867	81.60018920898439	-1113.77099609375	-98.80488586425784	921.4861450195315	-656.0622558593751	-57.53623199462892	869.5740356445315	-644.0690917968751	-24.53022956848145	874.5398559570315	-648.2396240234376	-79.12911987304689	787.2354125976565	-650.7291870117189	-106.2817535400391	649.3795776367189	-665.8434448242189	-54.60243606567384	626.6713256835939	-771.4954833984377	-73.25453948974611	437.8994445800782	-647.1685180664064	-161.2936248779297	377.1686096191407	-648.3728027343751	-117.7982025146485	366.2419738769532	-635.7754516601564	-97.92173004150393	313.5305480957032	-659.2491455078126	-175.010986328125	229.7844543457032	-638.8197021484376	-130.4536437988282	225.3034667968751	-715.7536010742189	-234.9153442382813	227.2178955078126	-703.6626586914064	-53.2484588623047	84.02588653564455	-671.8391723632814	-65.76924133300783	86.90362548828126	-626.9797973632814	-133.1314697265625	92.68847656250001	-592.1420288085939	
1021	5.100000000000001	-85.04591369628908	1913.068237304688	-777.343200683594	-215.4461364746094	1830.230834960938	-904.9281005859377	-198.5047607421876	1840.488525390625	-765.2191772460939	-205.2057647705079	1693.077270507813	-848.7513427734377	-192.2950286865235	1383.0849609375	-861.8039550781252	-51.77706146240236	1647.619140625	-843.538757324219	-94.70130920410158	1706.275634765625	-1025.920776367188	-159.7613983154297	1574.95947265625	-1205.2646484375	-122.38330078125	1540.687866210938	-1205.4404296875	-158.3206329345703	1520.660400390625	-1249.960205078125	-153.179916381836	1455.345581054688	-1280.754638671875	-234.7616577148438	1439.599365234375	-1245.10546875	-154.9793243408203	1220.1494140625	-1102.693115234375	-107.0172729492188	1196.724365234375	-1157.20751953125	-104.2577819824219	1215.544311523438	-1050.369384765625	-90.80699157714845	1695.647216796875	-658.3909912109376	-200.0601806640626	1573.078857421875	-501.506072998047	-166.2979583740235	1538.801391601563	-487.2675170898439	-214.1535339355469	1520.05029296875	-456.9828491210939	-208.6139221191407	1454.501098632813	-427.733123779297	-283.9885864257813	1441.400268554688	-472.8388671875001	-163.1148376464844	1248.948974609375	-640.0019531250001	-154.924057006836	1199.575927734375	-581.5966186523439	-103.4723815917969	1222.549926757813	-680.7896118164064	-32.4701271057129	1193.694458007813	-966.8670654296877	-45.03842163085938	1181.150756835938	-743.1856689453126	-207.2831115722657	1255.393798828125	-858.948669433594	-213.2795562744141	1224.50830078125	-886.1837158203127	-218.7737884521485	1225.511596679688	-827.0424804687502	-99.8071212768555	908.7762451171877	-1056.754028320313	-62.98672103881837	832.4978027343752	-1064.606811523438	-15.79442119598389	836.582458496094	-1060.451782226563	-87.81613922119142	777.5772094726565	-1055.933227539063	-85.73775482177736	654.3016967773439	-1060.17236328125	-43.29553985595704	620.8068237304689	-952.5394287109377	-36.8850212097168	501.9246215820314	-1053.573486328125	-112.2042846679688	470.9986572265626	-1085.3173828125	-70.9302444458008	460.4166870117189	-1077.690551757813	-71.96913909912111	377.9731750488282	-1045.18798828125	-159.9802398681641	222.1456451416016	-1076.675048828125	-127.4702987670899	207.9329833984376	-997.3142089843752	-226.898422241211	215.415023803711	-1021.966796875	-44.07323074340821	72.03882598876955	-1035.877685546875	-57.13642883300783	69.56412506103517	-1076.805541992188	-117.6470642089844	71.64366912841798	-1113.453125	-95.94435882568361	910.2553710937502	-655.5345458984376	-54.17016220092775	858.8999023437502	-643.4578247070314	-21.38312339782715	864.076843261719	-647.3873901367189	-75.00414276123048	776.1857910156252	-649.8146362304689	-101.149528503418	638.7048950195314	-664.1879272460939	-49.73755645751955	616.0653686523439	-769.7052001953127	-70.84946441650392	426.8162231445314	-646.3533935546876	-159.7250671386719	367.4593200683594	-647.8106079101564	-116.4793472290039	355.9208984375001	-635.2621459960939	-97.42703247070315	303.0002441406251	-659.1372070312501	-175.8147277832032	220.4958648681641	-638.6358032226564	-131.3175201416016	215.5575561523438	-715.7450561523439	-236.0536041259766	219.1041564941407	-703.3967895507814	-57.71748733520509	72.44499969482423	-674.3060302734376	-69.36690521240236	75.67333984375001	-629.4182128906251	-136.3123168945313	82.15467071533205	-592.9703979492189	
1022	5.105	-84.49669647216798	1901.192626953125	-777.3496093750002	-214.7626495361329	1818.145751953125	-904.8634033203127	-197.7707519531251	1828.598999023438	-765.2183837890626	-204.8851470947266	1681.134765625	-848.5127563476565	-192.0763244628907	1371.621948242188	-861.537048339844	-51.53218460083009	1635.312377929688	-843.430114746094	-94.57542419433595	1694.338500976563	-1025.633911132813	-159.83154296875	1563.385131835938	-1205.211669921875	-122.4059295654297	1529.014404296875	-1205.313110351563	-158.7005615234375	1509.113891601563	-1249.750366210938	-153.6476135253907	1444.124145507813	-1280.507202148438	-235.0279388427735	1428.078491210938	-1244.839599609375	-154.8795471191407	1208.863525390625	-1102.651977539063	-106.9895782470703	1185.79052734375	-1157.1279296875	-104.0533065795899	1204.043579101563	-1050.214233398438	-90.26716613769533	1683.95849609375	-658.3978271484376	-199.4035339355469	1561.739013671875	-501.0602416992189	-165.7277526855469	1527.696533203125	-486.9374084472657	-213.6080932617188	1508.815673828125	-456.3769836425782	-207.8898468017579	1443.267211914063	-427.3126220703126	-283.5653381347657	1430.449829101563	-472.0708312988282	-163.2701416015625	1237.9228515625	-639.7274169921876	-154.6848297119141	1188.64892578125	-581.4810791015626	-103.518180847168	1211.640869140625	-680.7259521484376	-32.74068069458009	1181.873413085938	-966.3735961914065	-45.5437240600586	1169.6611328125	-743.0722045898439	-207.7674560546876	1243.0341796875	-858.7971801757815	-213.4688415527344	1212.3310546875	-886.1724243164065	-219.6076202392579	1213.582885742188	-827.0257568359377	-97.01512145996097	896.994567871094	-1056.988525390625	-59.36392211914064	821.1060180664065	-1064.247436523438	-12.39515018463135	825.6744384765627	-1060.036987304688	-83.77230834960939	766.1029663085939	-1056.459228515625	-80.98103332519533	642.8542480468751	-1060.83251953125	-38.17504119873048	609.4604492187501	-951.4249267578127	-33.20617675781251	490.4958496093751	-1053.689819335938	-108.9480209350586	460.2038574218751	-1085.952514648438	-67.91094207763673	448.8093261718751	-1077.88525390625	-70.81988525390626	367.1354370117188	-1044.785278320313	-160.8148345947266	212.4631805419922	-1076.805297851563	-129.4519500732422	197.5653839111329	-996.8344726562502	-229.1453857421876	205.2154693603516	-1022.09228515625	-48.05255508422853	60.57834243774415	-1032.151733398438	-59.04381179809572	58.53971481323244	-1072.622802734375	-118.5174026489258	62.68773269653322	-1112.790893554688	-93.30017852783205	898.5924072265627	-654.8742065429689	-50.58309555053712	848.4183349609377	-642.5705566406251	-18.05053329467774	853.5774536132815	-646.4868164062501	-70.42063903808595	765.0313110351564	-648.6994628906251	-96.01435089111331	627.5575561523439	-662.5457153320314	-44.70664596557618	605.3526000976564	-767.9840698242189	-68.65893554687501	415.8752441406251	-645.5453491210939	-158.4865264892578	357.7583312988282	-646.9853515625001	-115.0751876831055	345.2994079589844	-634.9425659179689	-97.51014709472659	292.4160766601563	-659.4030151367189	-177.4687652587891	211.4713897705079	-638.8110961914064	-133.4011840820313	206.3851013183594	-716.4161987304689	-238.4256896972657	209.7593383789063	-703.1233520507814	-62.35901260375978	62.67198181152345	-677.8153686523439	-74.74252319335939	63.16893005371095	-633.0343017578126	-138.8543395996094	72.90505218505861	-593.8242187500001	
